# xmcd
#
# Track frame offsets:
#	150
#	14789
#	27275
#	42309
#	57088
#	73299
#	87403
#	99744
#	112004
#	128671
#	145755
#	162517
#	178171
#	187155
#	205319
#	219182
#	235094
#	250480
#	261994
#	276383
#	293806
#	310285
#
# Disc length: 4371
#
# Revision: 1
# Processed by: cddbd v1.5.1PL0 Copyright (c) Steve Scherf et al.
# Submitted via: ExactAudioCopy v0.90a11
# Normalized: r0:DSETVAR1
#
DISCID=5f111116
DTITLE=Various Artist - HOTT2DEATH R&B Central the Selection v2 CD#1
DYEAR=1900
DGENRE=
TTITLE0=Destiny's Child - Nasty Girl
TTITLE1=702 - Pootie Tangin
TTITLE2=Jagged Edge feat. Ludicrus - Cut Somethin'
TTITLE3=Dream - This is Me
TTITLE4=Alicia Keys - Fallin (feat. Busta and Rampage)
TTITLE5=Mary.J Blige - Family Affair
TTITLE6=Gentlemen Thug - So Fine
TTITLE7=Blu Cantrell - Hit Em Up Style (feat. Foxy Brown)
TTITLE8=Foxy Brown - Oh Yeah
TTITLE9=P.Diddy - Bad Boy for Life
TTITLE10=Jay Z - Hova Song
TTITLE11=Jadakiss - We Gonna Make It
TTITLE12=Beanie Siegal - Mac Bitch
TTITLE13=Ludacris - Phat Rabbit
TTITLE14=Sincere feat. Timbaland - Party
TTITLE15=2Pac feat. Lil Mo - Nigger Nature
TTITLE16=Sticky feat. Dave Hollister - Baby Brother
TTITLE17=Shade Sheist - Where I Wanna Be
TTITLE18=Koffe Brown - Weekend Thing
TTITLE19=Jaheim - Just in Case
TTITLE20=Eric Benet - Love Don't Love Me
TTITLE21=Missy - One Minute Man (R&B Central rmx)
EXTD=
EXTT0=
EXTT1=
EXTT2=
EXTT3=
EXTT4=
EXTT5=
EXTT6=
EXTT7=
EXTT8=
EXTT9=
EXTT10=
EXTT11=
EXTT12=
EXTT13=
EXTT14=
EXTT15=
EXTT16=
EXTT17=
EXTT18=
EXTT19=
EXTT20=
EXTT21=
PLAYORDER=
